<svg width="253" height="133" viewBox="0 0 253 133" fill="none" xmlns="http://www.w3.org/2000/svg">
<path d="M17.3752 103.83C12.7757 103.83 9.23478 102.626 6.75251 100.217C4.27024 97.7708 3.02911 94.3759 3.02911 90.0319C3.02911 87.0021 3.61317 84.3738 4.7813 82.147C5.94942 79.9203 7.5921 78.2046 9.70933 77C11.8631 75.7589 14.3271 75.1383 17.1014 75.1383C19.5107 75.1383 21.5731 75.5581 23.2888 76.3977C25.0045 77.2373 26.3004 78.3506 27.1765 79.7378C28.0891 81.1249 28.5454 82.6399 28.5454 84.2825C28.5454 85.8887 28.1438 87.2211 27.3408 88.2797C26.5377 89.3383 25.4425 90.1597 24.0554 90.7437C22.6682 91.3278 21.0621 91.6928 19.2369 91.8389C17.4482 91.9849 15.5317 91.9484 13.4875 91.7293C11.4433 91.4738 9.39905 91.0723 7.35483 90.5247L7.35483 86.4728C9.32604 86.9838 11.1877 87.3306 12.9399 87.5131C14.6921 87.6591 16.2618 87.6409 17.6489 87.4584C19.0361 87.2759 20.113 86.9108 20.8796 86.3633C21.6826 85.7792 22.0842 84.9579 22.0842 83.8992C22.0842 82.8406 21.6461 81.9098 20.77 81.1067C19.8939 80.3036 18.6528 79.9021 17.0466 79.9021C15.5865 79.9021 14.2906 80.2853 13.159 81.0519C12.0273 81.782 11.133 82.8771 10.4759 84.3373C9.81885 85.7609 9.49031 87.5496 9.49031 89.7034C9.49031 91.7111 9.80059 93.4085 10.4212 94.7957C11.0782 96.1463 12.0456 97.1684 13.3232 97.862C14.6009 98.5191 16.2435 98.8476 18.2513 98.8476C19.8574 98.8476 21.4454 98.6651 23.015 98.3001C24.6212 97.8985 26.1726 97.3145 27.6693 96.5479V101.202C26.4647 101.932 24.9862 102.553 23.2341 103.064C21.5184 103.575 19.5654 103.83 17.3752 103.83Z" fill="black"/>
<path d="M45.6765 104.161C43.2006 104.161 40.9382 103.883 38.8892 103.329C36.883 102.731 35.1328 101.984 33.6388 101.087V94.6204C35.7304 96.0291 37.8434 97.139 39.9778 97.95C42.1121 98.7184 44.1184 99.1025 45.9966 99.1025C48.0029 99.1025 49.4542 98.7184 50.3507 97.95C51.2898 97.1816 51.7593 96.2639 51.7593 95.1967C51.7593 94.1295 51.3111 93.2758 50.4147 92.6355C49.561 91.9952 48.4511 91.4829 47.0851 91.0988C45.7191 90.6719 44.2678 90.245 42.7311 89.8181C41.237 89.3486 39.807 88.7937 38.441 88.1534C37.075 87.4704 35.9652 86.5526 35.1115 85.4001C34.2577 84.2048 33.8308 82.6681 33.8308 80.7899C33.8308 78.869 34.3217 77.1401 35.3035 75.6034C36.328 74.0667 37.8221 72.8501 39.7857 71.9537C41.7919 71.0573 44.2678 70.6091 47.2132 70.6091C49.561 70.6091 51.5886 70.9079 53.2961 71.5055C55.0462 72.0604 56.3909 72.8288 57.33 73.8106C58.2691 74.7497 58.7386 75.8382 58.7386 77.0761C58.7386 77.9299 58.5039 78.6128 58.0343 79.1251C57.5648 79.5946 56.9244 79.8294 56.1134 79.8294C55.345 79.8294 54.6834 79.616 54.1285 79.1891C53.5735 78.7622 52.9973 78.2927 52.3996 77.7805C51.802 77.2255 51.0763 76.7346 50.2226 76.3078C49.3689 75.8809 48.259 75.6674 46.893 75.6674C45.0575 75.6674 43.7129 76.073 42.8591 76.884C42.0054 77.6951 41.5785 78.6128 41.5785 79.6373C41.5785 80.7045 42.0054 81.5582 42.8591 82.1985C43.7555 82.8388 44.8654 83.3724 46.1887 83.7993C47.5547 84.1835 49.006 84.6103 50.5428 85.0799C52.0795 85.5068 53.5095 86.083 54.8328 86.8087C56.1988 87.4917 57.3086 88.4308 58.1624 89.6261C59.0588 90.7786 59.507 92.3153 59.507 94.2362C59.507 96.1145 58.9948 97.8219 57.9703 99.3587C56.9458 100.853 55.4091 102.027 53.3601 102.88C51.3538 103.734 48.7926 104.161 45.6765 104.161Z" fill="black"/>
<path d="M145.998 75.9491C145.998 70.4051 147.024 65.5797 149.078 61.473C151.199 57.3663 154.108 54.1836 157.804 51.925C161.569 49.5978 165.881 48.4343 170.741 48.4343C175.463 48.4343 179.638 49.5294 183.266 51.7196C186.894 53.8414 189.734 56.853 191.787 60.7544C193.841 64.6557 194.867 69.31 194.867 74.7171C194.867 80.1927 193.806 85.0181 191.685 89.1932C189.631 93.2999 186.757 96.5169 183.061 98.844C179.365 101.103 175.053 102.232 170.125 102.232C165.402 102.232 161.227 101.171 157.599 99.0493C153.971 96.8591 151.131 93.8133 149.078 89.9119C147.024 85.9421 145.998 81.2878 145.998 75.9491ZM152.363 75.6411C152.363 80.0216 153.116 83.8203 154.622 87.0372C156.196 90.1857 158.318 92.6155 160.987 94.3266C163.725 96.0377 166.771 96.8933 170.125 96.8933C173.615 96.8933 176.729 96.0035 179.467 94.2239C182.273 92.4444 184.464 89.9119 186.038 86.6266C187.681 83.3412 188.502 79.4741 188.502 75.0251C188.502 70.6447 187.715 66.8802 186.141 63.7317C184.635 60.5148 182.547 58.0508 179.878 56.3397C177.209 54.6285 174.163 53.773 170.741 53.773C167.25 53.773 164.101 54.6628 161.295 56.4423C158.557 58.2219 156.367 60.7544 154.724 64.0397C153.15 67.2566 152.363 71.1238 152.363 75.6411Z" fill="black"/>
<path d="M149.078 61.473L148.688 61.2715L148.685 61.2767L149.078 61.473ZM157.804 51.925L158.033 52.2996L158.035 52.2984L157.804 51.925ZM183.266 51.7196L183.039 52.0955L183.044 52.0986L183.266 51.7196ZM191.787 60.7544L191.399 60.9588L191.399 60.9588L191.787 60.7544ZM191.685 89.1932L191.293 88.9943L191.292 88.9969L191.685 89.1932ZM183.061 98.844L183.29 99.2186L183.295 99.2155L183.061 98.844ZM157.599 99.0493L157.372 99.4252L157.377 99.4283L157.599 99.0493ZM149.078 89.9119L148.688 90.1136L148.689 90.1164L149.078 89.9119ZM154.622 87.0372L154.224 87.2234L154.229 87.2336L154.622 87.0372ZM160.987 94.3266L160.75 94.6963L160.754 94.6989L160.987 94.3266ZM179.467 94.2239L179.232 93.8532L179.228 93.8558L179.467 94.2239ZM186.038 86.6266L185.645 86.4302L185.642 86.4368L186.038 86.6266ZM186.141 63.7317L185.743 63.9179L185.748 63.9281L186.141 63.7317ZM179.878 56.3397L180.115 55.97L180.115 55.97L179.878 56.3397ZM161.295 56.4423L161.06 56.0715L161.056 56.0742L161.295 56.4423ZM154.724 64.0397L154.332 63.8434L154.33 63.8467L154.724 64.0397ZM145.998 75.9491H146.437C146.437 70.4593 147.453 65.7037 149.47 61.6694L149.078 61.473L148.685 61.2767C146.595 65.4557 145.559 70.3509 145.559 75.9491H145.998ZM149.078 61.473L149.468 61.6746C151.555 57.6342 154.41 54.5136 158.033 52.2996L157.804 51.925L157.575 51.5503C153.806 53.8537 150.844 57.0984 148.688 61.2715L149.078 61.473ZM157.804 51.925L158.035 52.2984C161.724 50.0183 165.954 48.8733 170.741 48.8733V48.4343V47.9952C165.808 47.9952 161.414 49.1774 157.574 51.5515L157.804 51.925ZM170.741 48.4343V48.8733C175.393 48.8733 179.488 49.9512 183.039 52.0955L183.266 51.7196L183.493 51.3438C179.789 49.1076 175.534 47.9952 170.741 47.9952V48.4343ZM183.266 51.7196L183.044 52.0986C186.597 54.1769 189.382 57.1264 191.399 60.9588L191.787 60.7544L192.176 60.5499C190.086 56.5796 187.19 53.506 183.488 51.3407L183.266 51.7196ZM191.787 60.7544L191.399 60.9588C193.412 64.7844 194.428 69.3653 194.428 74.7171H194.867H195.306C195.306 69.2547 194.269 64.527 192.176 60.5499L191.787 60.7544ZM194.867 74.7171H194.428C194.428 80.1353 193.379 84.8905 191.293 88.9943L191.685 89.1932L192.076 89.3922C194.234 85.1457 195.306 80.2502 195.306 74.7171H194.867ZM191.685 89.1932L191.292 88.9969C189.273 93.0356 186.451 96.1903 182.827 98.4725L183.061 98.844L183.295 99.2155C187.062 96.8434 189.99 93.5643 192.077 89.3896L191.685 89.1932ZM183.061 98.844L182.832 98.4694C179.214 100.68 174.983 101.793 170.125 101.793V102.232V102.671C175.122 102.671 179.515 101.525 183.29 99.2186L183.061 98.844ZM170.125 102.232V101.793C165.47 101.793 161.373 100.748 157.821 98.6703L157.599 99.0493L157.377 99.4283C161.08 101.594 165.334 102.671 170.125 102.671V102.232ZM157.599 99.0493L157.826 98.6735C154.27 96.5263 151.484 93.541 149.466 89.7074L149.078 89.9119L148.689 90.1164C150.778 94.0855 153.673 97.1919 157.372 99.4252L157.599 99.0493ZM149.078 89.9119L149.468 89.7102C147.452 85.8138 146.437 81.2312 146.437 75.9491H145.998H145.559C145.559 81.3445 146.596 86.0704 148.688 90.1136L149.078 89.9119ZM152.363 75.6411H151.924C151.924 80.0713 152.685 83.9362 154.224 87.2234L154.622 87.0372L155.019 86.8511C153.546 83.7044 152.802 79.972 152.802 75.6411H152.363ZM154.622 87.0372L154.229 87.2336C155.835 90.4448 158.007 92.9378 160.75 94.6962L160.987 94.3266L161.224 93.957C158.628 92.2931 156.557 89.9266 155.014 86.8409L154.622 87.0372ZM160.987 94.3266L160.754 94.6989C163.565 96.4554 166.692 97.3323 170.125 97.3323V96.8933V96.4543C166.85 96.4543 163.885 95.6201 161.22 93.9543L160.987 94.3266ZM170.125 96.8933V97.3323C173.694 97.3323 176.893 96.4212 179.707 94.5921L179.467 94.2239L179.228 93.8558C176.566 95.5859 173.536 96.4543 170.125 96.4543V96.8933ZM179.467 94.2239L179.702 94.5947C182.585 92.7669 184.828 90.1685 186.434 86.8163L186.038 86.6266L185.642 86.4368C184.1 89.6554 181.962 92.1219 179.232 93.8532L179.467 94.2239ZM186.038 86.6266L186.431 86.8229C188.11 83.465 188.941 79.528 188.941 75.0251H188.502H188.063C188.063 79.4201 187.252 83.2174 185.645 86.4302L186.038 86.6266ZM188.502 75.0251H188.941C188.941 70.5928 188.145 66.7579 186.533 63.5354L186.141 63.7317L185.748 63.9281C187.285 67.0025 188.063 70.6965 188.063 75.0251H188.502ZM186.141 63.7317L186.538 63.5456C185.002 60.2629 182.862 57.7312 180.115 55.97L179.878 56.3397L179.641 56.7093C182.232 58.3704 184.268 60.7667 185.743 63.9178L186.141 63.7317ZM179.878 56.3397L180.115 55.97C177.369 54.21 174.24 53.3339 170.741 53.3339V53.773V54.212C174.086 54.212 177.048 55.0471 179.641 56.7093L179.878 56.3397ZM170.741 53.773V53.3339C167.171 53.3339 163.94 54.2451 161.06 56.0716L161.295 56.4423L161.53 56.8131C164.263 55.0804 167.329 54.212 170.741 54.212V53.773ZM161.295 56.4423L161.056 56.0742C158.245 57.9015 156.005 60.4971 154.332 63.8434L154.724 64.0397L155.117 64.2361C156.729 61.0117 158.87 58.5423 161.534 56.8104L161.295 56.4423ZM154.724 64.0397L154.33 63.8467C152.72 67.1373 151.924 71.0739 151.924 75.6411H152.363H152.802C152.802 71.1737 153.581 67.3759 155.119 64.2327L154.724 64.0397Z" fill="black"/>
<path d="M101.862 81.1551C101.862 76.7199 102.684 72.8596 104.326 69.5742C106.024 66.2889 108.351 63.7427 111.308 61.9358C114.319 60.0741 117.769 59.1432 121.657 59.1432C125.435 59.1432 128.775 60.0193 131.677 61.7715C134.579 63.4689 136.852 65.8782 138.494 68.9993C140.137 72.1204 140.958 75.8438 140.958 80.1695C140.958 84.55 140.11 88.4103 138.412 91.7504C136.769 95.0358 134.47 97.6093 131.513 99.471C128.556 101.278 125.106 102.181 121.164 102.181C117.386 102.181 114.046 101.333 111.144 99.6353C108.242 97.8831 105.969 95.4464 104.326 92.3253C102.684 89.1495 101.862 85.4261 101.862 81.1551ZM106.955 80.9087C106.955 84.4131 107.557 87.4521 108.762 90.0256C110.021 92.5444 111.719 94.4882 113.854 95.8571C116.044 97.226 118.481 97.9104 121.164 97.9104C123.957 97.9104 126.448 97.1986 128.638 95.775C130.883 94.3513 132.635 92.3253 133.895 89.697C135.209 87.0688 135.866 83.975 135.866 80.4159C135.866 76.9115 135.236 73.9 133.977 71.3812C132.772 68.8076 131.102 66.8364 128.967 65.4675C126.831 64.0986 124.395 63.4142 121.657 63.4142C118.864 63.4142 116.345 64.126 114.1 65.5497C111.91 66.9733 110.158 68.9993 108.844 71.6276C107.584 74.2011 106.955 77.2948 106.955 80.9087Z" fill="black"/>
<path d="M104.326 69.5742L103.546 69.1711L103.541 69.1815L104.326 69.5742ZM111.308 61.9358L111.766 62.685L111.77 62.6827L111.308 61.9358ZM131.677 61.7715L131.223 62.5233L131.234 62.5294L131.677 61.7715ZM138.494 68.9993L137.717 69.4083L137.717 69.4083L138.494 68.9993ZM138.412 91.7504L137.629 91.3526L137.627 91.3577L138.412 91.7504ZM131.513 99.471L131.971 100.22L131.981 100.214L131.513 99.471ZM111.144 99.6353L110.69 100.387L110.7 100.393L111.144 99.6353ZM104.326 92.3253L103.547 92.7288L103.549 92.7343L104.326 92.3253ZM108.762 90.0256L107.966 90.3978L107.971 90.4081L107.976 90.4183L108.762 90.0256ZM113.854 95.8571L113.38 96.5964L113.389 96.6017L113.854 95.8571ZM128.638 95.775L128.168 95.0334L128.16 95.0387L128.638 95.775ZM133.895 89.697L133.109 89.3044L133.106 89.311L133.103 89.3176L133.895 89.697ZM133.977 71.3812L133.182 71.7534L133.186 71.7637L133.191 71.7739L133.977 71.3812ZM128.967 65.4675L129.441 64.7283L129.441 64.7283L128.967 65.4675ZM114.1 65.5497L113.63 64.8081L113.622 64.8134L114.1 65.5497ZM108.844 71.6276L108.058 71.2349L108.055 71.2416L108.844 71.6276ZM101.862 81.1551H102.741C102.741 76.8283 103.542 73.1076 105.112 69.9669L104.326 69.5742L103.541 69.1815C101.826 72.6116 100.984 76.6115 100.984 81.1551H101.862ZM104.326 69.5742L105.107 69.9773C106.735 66.8247 108.955 64.4025 111.766 62.685L111.308 61.9358L110.85 61.1865C107.747 63.0829 105.312 65.7531 103.546 69.1712L104.326 69.5742ZM111.308 61.9358L111.77 62.6827C114.629 60.915 117.916 60.0213 121.657 60.0213V59.1432V58.2651C117.623 58.2651 114.01 59.2331 110.846 61.1889L111.308 61.9358ZM121.657 59.1432V60.0213C125.294 60.0213 128.473 60.8629 131.223 62.5232L131.677 61.7715L132.131 61.0198C129.077 59.1757 125.576 58.2651 121.657 58.2651V59.1432ZM131.677 61.7715L131.234 62.5294C133.987 64.1399 136.147 66.4249 137.717 69.4083L138.494 68.9993L139.271 68.5903C137.556 65.3315 135.171 62.798 132.12 61.0136L131.677 61.7715ZM138.494 68.9993L137.717 69.4083C139.28 72.3778 140.08 75.9544 140.08 80.1695H140.958H141.836C141.836 75.7331 140.994 71.863 139.271 68.5903L138.494 68.9993ZM140.958 80.1695H140.08C140.08 84.4351 139.254 88.155 137.629 91.3526L138.412 91.7504L139.195 92.1482C140.965 88.6656 141.836 84.6649 141.836 80.1695H140.958ZM138.412 91.7504L137.627 91.3577C136.052 94.5071 133.859 96.9563 131.045 98.7279L131.513 99.471L131.981 100.214C135.08 98.2623 137.487 95.5644 139.197 92.1431L138.412 91.7504ZM131.513 99.471L131.055 98.7217C128.254 100.433 124.968 101.303 121.164 101.303V102.181V103.059C125.245 103.059 128.858 102.123 131.971 100.22L131.513 99.471ZM121.164 102.181V101.303C117.522 101.303 114.338 100.487 111.587 98.8773L111.144 99.6353L110.7 100.393C113.753 102.179 117.25 103.059 121.164 103.059V102.181ZM111.144 99.6353L111.597 98.8836C108.838 97.2175 106.675 94.9019 105.104 91.9164L104.326 92.3253L103.549 92.7343C105.263 95.9909 107.645 98.5487 110.69 100.387L111.144 99.6353ZM104.326 92.3253L105.106 91.9219C103.54 88.8928 102.741 85.3128 102.741 81.1551H101.862H100.984C100.984 85.5393 101.828 89.4062 103.547 92.7287L104.326 92.3253ZM106.955 80.9087H106.077C106.077 84.5124 106.696 87.6839 107.966 90.3978L108.762 90.0256L109.557 89.6533C108.418 87.2202 107.833 84.3138 107.833 80.9087H106.955ZM108.762 90.0256L107.976 90.4183C109.298 93.0625 111.097 95.1329 113.38 96.5963L113.854 95.8571L114.328 95.1179C112.34 93.8435 110.744 92.0262 109.547 89.6329L108.762 90.0256ZM113.854 95.8571L113.389 96.6017C115.724 98.0613 118.323 98.7885 121.164 98.7885V97.9104V97.0324C118.639 97.0324 116.365 96.3907 114.319 95.1125L113.854 95.8571ZM121.164 97.9104V98.7885C124.114 98.7885 126.774 98.0339 129.117 96.5112L128.638 95.775L128.16 95.0387C126.122 96.3633 123.799 97.0324 121.164 97.0324V97.9104ZM128.638 95.775L129.108 96.5165C131.506 94.9963 133.363 92.8384 134.687 90.0765L133.895 89.697L133.103 89.3176C131.908 91.8122 130.261 93.7063 128.168 95.0334L128.638 95.775ZM133.895 89.697L134.68 90.0897C136.067 87.3164 136.744 84.083 136.744 80.4159H135.866H134.988C134.988 83.8671 134.351 86.8211 133.109 89.3044L133.895 89.697ZM135.866 80.4159H136.744C136.744 76.8078 136.096 73.6553 134.762 70.9885L133.977 71.3812L133.191 71.7739C134.377 74.1446 134.988 77.0152 134.988 80.4159H135.866ZM133.977 71.3812L134.772 71.0089C133.506 68.3038 131.732 66.1972 129.441 64.7283L128.967 65.4675L128.493 66.2068C130.472 67.4757 132.039 69.3115 133.182 71.7534L133.977 71.3812ZM128.967 65.4675L129.441 64.7283C127.152 63.2615 124.549 62.5361 121.657 62.5361V63.4142V64.2923C124.24 64.2923 126.51 64.9357 128.493 66.2068L128.967 65.4675ZM121.657 63.4142V62.5361C118.707 62.5361 116.023 63.2907 113.63 64.8081L114.1 65.5497L114.571 66.2912C116.668 64.9613 119.022 64.2923 121.657 64.2923V63.4142ZM114.1 65.5497L113.622 64.8134C111.285 66.3325 109.434 68.4847 108.058 71.2349L108.844 71.6276L109.629 72.0203C110.882 69.5139 112.536 67.6141 114.579 66.2859L114.1 65.5497ZM108.844 71.6276L108.055 71.2416C106.724 73.9625 106.077 77.195 106.077 80.9087H106.955H107.833C107.833 77.3946 108.445 74.4397 109.633 72.0135L108.844 71.6276Z" fill="black"/>
<path d="M63.4754 85.2943C63.4754 81.4889 64.1801 78.1767 65.5895 75.3579C67.0459 72.5391 69.0426 70.3545 71.5795 68.8041C74.1635 67.2068 77.1233 66.4081 80.4589 66.4081C83.7006 66.4081 86.5664 67.1598 89.0564 68.6632C91.5463 70.1196 93.496 72.1867 94.9054 74.8646C96.3149 77.5425 97.0196 80.7372 97.0196 84.4487C97.0196 88.2071 96.2914 91.5193 94.835 94.3851C93.4256 97.2039 91.4524 99.412 88.9154 101.009C86.3785 102.56 83.4187 103.335 80.0361 103.335C76.7944 103.335 73.9286 102.607 71.4386 101.15C68.9486 99.6469 66.9989 97.5563 65.5895 94.8784C64.1801 92.1535 63.4754 88.9588 63.4754 85.2943ZM67.8446 85.0829C67.8446 88.0897 68.3614 90.6971 69.3949 92.9052C70.4755 95.0663 71.9319 96.7341 73.7641 97.9086C75.6434 99.0832 77.734 99.6704 80.0361 99.6704C82.4321 99.6704 84.5697 99.0597 86.4489 97.8382C88.3751 96.6167 89.8785 94.8784 90.9591 92.6233C92.0866 90.3682 92.6504 87.7138 92.6504 84.6601C92.6504 81.6533 92.1101 79.0694 91.0295 76.9083C89.996 74.7002 88.5631 73.0089 86.7308 71.8344C84.8986 70.6598 82.8079 70.0726 80.4589 70.0726C78.0629 70.0726 75.9018 70.6833 73.9755 71.9048C72.0963 73.1263 70.5929 74.8646 69.4654 77.1197C68.3848 79.3278 67.8446 81.9822 67.8446 85.0829Z" fill="black"/>
<path d="M65.5895 75.3579L64.6533 74.8742L64.647 74.8867L65.5895 75.3579ZM71.5795 68.8041L72.129 69.7032L72.1336 69.7004L71.5795 68.8041ZM89.0564 68.6632L88.5117 69.5652L88.518 69.569L88.5244 69.5727L89.0564 68.6632ZM94.9054 74.8646L93.973 75.3554L93.973 75.3554L94.9054 74.8646ZM94.835 94.3851L93.8956 93.9077L93.8925 93.9139L94.835 94.3851ZM88.9154 101.009L89.4649 101.909L89.4768 101.901L88.9154 101.009ZM71.4386 101.15L70.894 102.052L70.9003 102.056L70.9066 102.06L71.4386 101.15ZM65.5895 94.8784L64.6536 95.3625L64.6571 95.3691L65.5895 94.8784ZM69.3949 92.9052L68.4406 93.3519L68.4464 93.3642L68.4525 93.3764L69.3949 92.9052ZM73.7641 97.9086L73.1955 98.7958L73.2057 98.8022L73.7641 97.9086ZM86.4489 97.8382L85.8846 96.9483L85.8747 96.9547L86.4489 97.8382ZM90.9591 92.6233L90.0166 92.1521L90.0127 92.16L90.0088 92.168L90.9591 92.6233ZM91.0295 76.9083L90.0752 77.355L90.081 77.3673L90.0871 77.3795L91.0295 76.9083ZM86.7308 71.8344L87.2994 70.9473L87.2994 70.9473L86.7308 71.8344ZM73.9755 71.9048L73.4112 71.0149L73.4013 71.0214L73.9755 71.9048ZM69.4654 77.1197L68.5229 76.6484L68.519 76.6565L69.4654 77.1197ZM63.4754 85.2943H64.5291C64.5291 81.6189 65.2093 78.4744 66.5319 75.8291L65.5895 75.3579L64.647 74.8867C63.1508 77.8791 62.4217 81.3588 62.4217 85.2943H63.4754ZM65.5895 75.3579L66.5256 75.8416C67.8997 73.182 69.7676 71.1463 72.129 69.7032L71.5795 68.8041L71.0301 67.905C68.3175 69.5627 66.1921 71.8961 64.6534 74.8742L65.5895 75.3579ZM71.5795 68.8041L72.1336 69.7004C74.5349 68.2159 77.2991 67.4618 80.4589 67.4618V66.4081V65.3544C76.9474 65.3544 73.792 66.1976 71.0255 67.9078L71.5795 68.8041ZM80.4589 66.4081V67.4618C83.5312 67.4618 86.2044 68.1721 88.5117 69.5652L89.0564 68.6632L89.601 67.7611C86.9283 66.1475 83.8699 65.3544 80.4589 65.3544V66.4081ZM89.0564 68.6632L88.5244 69.5727C90.8358 70.9247 92.6506 72.8428 93.973 75.3554L94.9054 74.8646L95.8379 74.3739C94.3415 71.5306 92.2568 69.3144 89.5883 67.7536L89.0564 68.6632ZM94.9054 74.8646L93.973 75.3554C95.2867 77.8514 95.9659 80.87 95.9659 84.4487H97.0196H98.0733C98.0733 80.6044 97.343 77.2336 95.8379 74.3739L94.9054 74.8646ZM97.0196 84.4487H95.9659C95.9659 88.0692 95.2651 91.2129 93.8956 93.9077L94.835 94.3851L95.7743 94.8625C97.3176 91.8256 98.0733 88.345 98.0733 84.4487H97.0196ZM94.835 94.3851L93.8925 93.9139C92.5647 96.5696 90.7194 98.6284 88.354 100.118L88.9154 101.009L89.4768 101.901C92.1854 100.196 94.2864 97.8383 95.7774 94.8563L94.835 94.3851ZM88.9154 101.009L88.366 100.11C86.0163 101.546 83.2521 102.281 80.0361 102.281V103.335V104.389C83.5852 104.389 86.7406 103.573 89.4649 101.908L88.9154 101.009ZM80.0361 103.335V102.281C76.9577 102.281 74.2799 101.592 71.9706 100.241L71.4386 101.15L70.9066 102.06C73.5772 103.622 76.6311 104.389 80.0361 104.389V103.335ZM71.4386 101.15L71.9832 100.248C69.6644 98.8482 67.8457 96.9029 66.5219 94.3876L65.5895 94.8784L64.6571 95.3691C66.1521 98.2097 68.2329 100.446 70.894 102.052L71.4386 101.15ZM65.5895 94.8784L66.5254 94.3943C65.2071 91.8455 64.5291 88.8229 64.5291 85.2943H63.4754H62.4217C62.4217 89.0947 63.1531 92.4615 64.6536 95.3625L65.5895 94.8784ZM67.8446 85.0829H66.7909C66.7909 88.2089 67.3281 90.9753 68.4406 93.3519L69.3949 92.9052L70.3492 92.4585C69.3946 90.4189 68.8983 87.9705 68.8983 85.0829H67.8446ZM69.3949 92.9052L68.4525 93.3764C69.6083 95.6881 71.1863 97.5078 73.1955 98.7957L73.7641 97.9086L74.3328 97.0216C72.6775 95.9605 71.3427 94.4445 70.3374 92.434L69.3949 92.9052ZM73.7641 97.9086L73.2057 98.8022C75.2591 100.086 77.5446 100.724 80.0361 100.724V99.6704V98.6167C77.9234 98.6167 76.0277 98.0808 74.3226 97.0151L73.7641 97.9086ZM80.0361 99.6704V100.724C82.6212 100.724 84.9611 100.062 87.0232 98.7216L86.4489 97.8382L85.8747 96.9547C84.1783 98.0573 82.2429 98.6167 80.0361 98.6167V99.6704ZM86.4489 97.8382L87.0132 98.728C89.1222 97.3906 90.7519 95.4941 91.9093 93.0786L90.9591 92.6233L90.0088 92.168C89.0051 94.2627 87.6281 95.8427 85.8846 96.9483L86.4489 97.8382ZM90.9591 92.6233L91.9015 93.0945C93.1161 90.6654 93.7041 87.8433 93.7041 84.6601H92.6504H91.5967C91.5967 87.5843 91.0571 90.071 90.0166 92.1521L90.9591 92.6233ZM92.6504 84.6601H93.7041C93.7041 81.5289 93.1414 78.7758 91.972 76.437L91.0295 76.9083L90.0871 77.3795C91.0788 79.3629 91.5967 81.7778 91.5967 84.6601H92.6504ZM91.0295 76.9083L91.9839 76.4616C90.8764 74.0955 89.3189 72.2418 87.2994 70.9473L86.7308 71.8344L86.1622 72.7214C87.8072 73.776 89.1156 75.3048 90.0752 77.355L91.0295 76.9083ZM86.7308 71.8344L87.2994 70.9473C85.284 69.6553 82.9928 69.0189 80.4589 69.0189V70.0726V71.1263C82.623 71.1263 84.5131 71.6644 86.1622 72.7214L86.7308 71.8344ZM80.4589 70.0726V69.0189C77.8736 69.0189 75.5149 69.6809 73.4112 71.015L73.9755 71.9048L74.5398 72.7947C76.2886 71.6857 78.2521 71.1263 80.4589 71.1263V70.0726ZM73.9755 71.9048L73.4013 71.0214C71.3459 72.3574 69.7236 74.2471 68.5229 76.6485L69.4654 77.1197L70.4078 77.5909C71.4622 75.4821 72.8467 73.8953 74.5498 72.7883L73.9755 71.9048ZM69.4654 77.1197L68.519 76.6565C67.3519 79.0415 66.7909 81.8624 66.7909 85.0829H67.8446H68.8983C68.8983 82.1019 69.4178 79.6141 70.4118 77.5828L69.4654 77.1197Z" fill="black"/>
<path d="M224.655 83.6008C224.655 84.3054 224.435 84.8633 223.994 85.2744C223.583 85.6561 223.04 85.8469 222.365 85.8469C221.748 85.8469 221.234 85.6855 220.823 85.3625C220.442 85.0395 220.06 84.6725 219.678 84.2614C219.326 83.8503 218.871 83.4833 218.313 83.1603C217.784 82.8374 217.05 82.6759 216.111 82.6759C214.349 82.6759 212.954 83.3218 211.927 84.6137C210.928 85.9057 210.429 87.638 210.429 89.8108C210.429 91.2495 210.679 92.5121 211.178 93.5985C211.677 94.6555 212.426 95.4776 213.424 96.0649C214.452 96.6227 215.758 96.9017 217.344 96.9017C218.372 96.9017 219.429 96.7696 220.515 96.5053C221.631 96.2117 222.791 95.7712 223.994 95.184V99.4121C223.113 99.9406 222.071 100.425 220.867 100.866C219.663 101.277 218.21 101.482 216.507 101.482C212.896 101.482 210.062 100.469 208.007 98.4432C205.951 96.4172 204.924 93.6425 204.924 90.1191C204.924 87.7701 205.379 85.7148 206.289 83.9531C207.199 82.1914 208.506 80.8261 210.209 79.8571C211.912 78.8882 213.938 78.4037 216.287 78.4037C217.872 78.4037 219.282 78.6386 220.515 79.1084C221.748 79.5782 222.732 80.1948 223.466 80.9582C224.259 81.751 224.655 82.6318 224.655 83.6008ZM226.945 90.1191C226.945 87.7701 227.4 85.7295 228.311 83.9971C229.25 82.2354 230.571 80.8701 232.274 79.9012C233.977 78.9029 235.989 78.4037 238.308 78.4037C240.54 78.4037 242.492 78.8735 244.166 79.8131C245.84 80.7233 247.146 82.0299 248.086 83.7329C249.025 85.4065 249.495 87.4178 249.495 89.7668C249.495 92.0863 249.025 94.127 248.086 95.8887C247.176 97.6504 245.869 99.0304 244.166 100.029C242.492 100.998 240.481 101.482 238.132 101.482C235.93 101.482 233.977 101.027 232.274 100.117C230.601 99.1772 229.294 97.8559 228.355 96.153C227.415 94.45 226.945 92.4387 226.945 90.1191ZM232.274 90.031C232.274 91.4991 232.524 92.7617 233.023 93.8187C233.552 94.8757 234.256 95.6832 235.137 96.241C236.018 96.7989 237.016 97.0778 238.132 97.0778C239.277 97.0778 240.305 96.7842 241.215 96.197C242.125 95.6098 242.845 94.7729 243.373 93.6866C243.902 92.6002 244.166 91.3229 244.166 89.8548C244.166 88.3867 243.902 87.1242 243.373 86.0672C242.874 85.0101 242.184 84.2027 241.303 83.6448C240.452 83.0869 239.453 82.808 238.308 82.808C237.163 82.808 236.135 83.1016 235.225 83.6888C234.315 84.2761 233.596 85.1129 233.067 86.1993C232.539 87.2563 232.274 88.5336 232.274 90.031Z" fill="black"/>
<circle cx="197.839" cy="97" r="3.5" fill="black" stroke="black"/>
</svg>
