<svg width="13" height="10" viewBox="0 0 13 10" fill="none" xmlns="http://www.w3.org/2000/svg">
<path d="M1.32571 4.64004C1.32571 3.87675 0.743204 3.23398 0 3.13354V6.16662C0.743204 6.0461 1.32571 5.42342 1.32571 4.64004Z" fill="black"/>
<path d="M9.80176 1.68726V7.59271H12.8549V6.5683C11.8707 6.46786 11.1275 5.64431 11.1275 4.63998C11.1275 3.63566 11.8908 2.8121 12.8549 2.71167V1.68726H9.80176Z" fill="black"/>
<path d="M12.855 6.14653V3.13354C12.1118 3.23398 11.5293 3.87675 11.5293 4.64004C11.5293 5.40333 12.1118 6.0461 12.855 6.14653Z" fill="black"/>
<path d="M9.58164 8.01448C9.46112 8.01448 9.38077 7.91405 9.38077 7.81362V1.48634C9.38077 1.36582 9.4812 1.28547 9.58164 1.28547H12.8557V0.0200195H6.62891V3.61552C7.2315 3.69587 7.6935 4.21812 7.6935 4.8408C7.6935 5.46349 7.2315 5.98574 6.62891 6.06608V9.30002H12.8557V8.03457H9.58164V8.01448Z" fill="black"/>
<path d="M3.05316 1.68726H0V2.71167C0.984243 2.8121 1.72745 3.63566 1.72745 4.63998C1.72745 5.64431 0.984243 6.46786 0 6.5683V7.59271H3.05316V1.68726Z" fill="black"/>
<path d="M6.22684 6.04606C5.66442 5.92554 5.22251 5.42338 5.22251 4.82078C5.22251 4.21818 5.64433 3.71602 6.22684 3.5955V0H0V1.26546H3.27411C3.39463 1.26546 3.47498 1.36589 3.47498 1.46632V7.7936C3.47498 7.91412 3.37455 7.99446 3.27411 7.99446H0V9.25992H6.22684V6.04606Z" fill="black"/>
</svg>
